<svg width="24" height="24" viewBox="0 0 24 24" fill="none" xmlns="http://www.w3.org/2000/svg">
<g clip-path="url(#clip0_41_952)">
<path d="M10.3212 3.37825C10.8463 3.1292 11.4201 3 12.0012 3C12.5823 3 13.1562 3.1292 13.6812 3.37825L23.4292 7.99625C23.599 8.07662 23.7428 8.2032 23.844 8.36149C23.9452 8.51978 23.9997 8.70337 24.0014 8.89123C24.0031 9.0791 23.9518 9.26363 23.8534 9.42369C23.7551 9.58376 23.6136 9.71287 23.4452 9.79625L13.7452 14.6082C13.2033 14.8775 12.6064 15.0176 12.0012 15.0176C11.3961 15.0176 10.7992 14.8775 10.2572 14.6082L2.00123 10.5122V15.0002C2.00123 15.2655 1.89588 15.5198 1.70834 15.7074C1.5208 15.8949 1.26645 16.0002 1.00123 16.0002C0.736017 16.0002 0.481663 15.8949 0.294126 15.7074C0.10659 15.5198 0.00123309 15.2655 0.00123309 15.0002V8.95025C-0.00859668 8.75247 0.0405171 8.55622 0.142349 8.38638C0.244181 8.21654 0.394145 8.08076 0.573233 7.99625L10.3212 3.37825ZM4.00123 13.7382V17.0002C4.00126 17.1318 4.02724 17.262 4.07769 17.3835C4.12814 17.505 4.20207 17.6154 4.29523 17.7082L4.29923 17.7142L4.34523 17.7562L4.46523 17.8682C4.56523 17.9616 4.7099 18.0862 4.89923 18.2422C5.27323 18.5482 5.81323 18.9522 6.48723 19.3582C7.82723 20.1602 9.75523 21.0002 12.0012 21.0002C14.2472 21.0002 16.1772 20.1602 17.5152 19.3582C18.2351 18.9261 18.9127 18.4272 19.5392 17.8682L19.6592 17.7562L19.6912 17.7242L19.7032 17.7122L19.7052 17.7102L19.7092 17.7082C19.802 17.6152 19.8756 17.5048 19.9257 17.3833C19.9758 17.2618 20.0015 17.1317 20.0012 17.0002V13.7362L14.6332 16.4002C13.8153 16.8063 12.9144 17.0175 12.0012 17.0175C11.088 17.0175 10.1872 16.8063 9.36923 16.4002L4.00123 13.7382Z" fill="#697586"/>
</g>
<defs>
<clipPath id="clip0_41_952">
<rect width="24" height="24" fill="white"/>
</clipPath>
</defs>
</svg>
